<svg id="acorn-logo-grey-sm" xmlns="http://www.w3.org/2000/svg" width="125.519" height="53.657" viewBox="0 0 125.519 53.657">
  <path id="Shape" d="M13.872,27.193a13.562,13.562,0,0,1-9.85-3.92A13.024,13.024,0,0,1,0,13.575,12.924,12.924,0,0,1,4.048,3.919,13.661,13.661,0,0,1,13.923,0,13.778,13.778,0,0,1,23.8,3.919h0a13.457,13.457,0,0,1,.32,19.007q-.157.164-.32.321A13.763,13.763,0,0,1,14.154,27.2Z" transform="translate(53.584 8.821)" fill="#56585a"/>
  <path id="Path" d="M16.149.317V6.6H14.234A7.419,7.419,0,0,0,9.085,8.32a6.508,6.508,0,0,0-1.914,5.095V26.461H0V.317H6.588V3.486A8.668,8.668,0,0,1,13.81,0a7.769,7.769,0,0,1,2.338.322" transform="translate(83.679 8.82)" fill="#56585a"/>
  <path id="Path-2" data-name="Path" d="M20.908,2.85a10.827,10.827,0,0,1,2.581,7.557V26.461H16.564V11.354a5.053,5.053,0,0,0-1.316-3.632,4.518,4.518,0,0,0-3.434-1.387A4.689,4.689,0,0,0,8.351,7.71a4.952,4.952,0,0,0-1.366,3.632v15.1H0V.583H6.4V2.927A10.065,10.065,0,0,1,13.885,0a9.005,9.005,0,0,1,7.023,2.847" transform="translate(102.03 8.82)" fill="#56585a"/>
  <path id="Path-3" data-name="Path" d="M13.679,20.7a6.525,6.525,0,0,1-4.94-2.019,7.105,7.105,0,0,1-1.933-5.121A7.049,7.049,0,0,1,8.739,8.491a6.528,6.528,0,0,1,4.94-2.023q3.751,0,6.29,3.78l4.966-3.84a12.4,12.4,0,0,0-4.6-4.7A13.069,13.069,0,0,0,13.569,0,13.814,13.814,0,0,0,3.635,3.911,12.761,12.761,0,0,0,0,10.017l6.87,15.6a14.167,14.167,0,0,0,6.7,1.581,13.014,13.014,0,0,0,6.738-1.731,12.58,12.58,0,0,0,4.65-4.708l-4.966-3.783Q17.346,20.7,13.7,20.7" transform="translate(29.361 8.82)" fill="#56585a"/>
  <path id="Shape-2" data-name="Shape" d="M26.151,35.281l-1.943-4.84H10.029l-2.4,4.84H0L15.952,0h2.36L33.765,35.281Z" fill="#56585a"/>
  <path id="Path-4" data-name="Path" d="M7.34,0V7.335H6.1V2.825L3.888,5.548H3.469L1.242,2.838V7.35H0V.016H.433l3.242,4.04L6.921.016Z" transform="translate(0.734 46.307)" fill="#56585a"/>
  <path id="Shape-3" data-name="Shape" d="M1.169,6.291a3.5,3.5,0,0,1,0-5.227A4.391,4.391,0,0,1,6.89,1.055a3.543,3.543,0,0,1,1.184,2.6A3.538,3.538,0,0,1,6.92,6.263l-.03.028A4.319,4.319,0,0,1,4.03,7.35,4.319,4.319,0,0,1,1.169,6.291Z" transform="translate(13.213 46.307)" fill="#56585a"/>
  <path id="Path-5" data-name="Path" d="M5.869,1.057H3.494V7.35H2.363V1.057H0V0H5.872Z" transform="translate(26.425 46.307)" fill="#56585a"/>
  <path id="Shape-4" data-name="Shape" d="M1.182,6.291A3.548,3.548,0,0,1,0,3.694,3.539,3.539,0,0,1,1.152,1.086l.03-.028a4.379,4.379,0,0,1,5.71,0,3.546,3.546,0,0,1,1.181,2.6A3.537,3.537,0,0,1,6.922,6.264l-.029.028A4.309,4.309,0,0,1,4.037,7.35,4.307,4.307,0,0,1,1.182,6.291Z" transform="translate(37.435 46.307)" fill="#56585a"/>
  <path id="Shape-5" data-name="Shape" d="M4.54,7.344,2.484,4.5H1.161V7.344H0V0H2.629A2.527,2.527,0,0,1,4.4.635,2.1,2.1,0,0,1,5.082,2.26a2.2,2.2,0,0,1-.367,1.265,2.124,2.124,0,0,1-1.02.8L5.873,7.351Z" transform="translate(51.382 46.306)" fill="#56585a"/>
  <path id="Path-6" data-name="Path" d="M6.942,1.5l-.871.686A2.646,2.646,0,0,0,3.842,1.061,2.641,2.641,0,0,0,1.913,1.8a2.726,2.726,0,0,0,.023,3.781,2.707,2.707,0,0,0,1.977.753A2.555,2.555,0,0,0,6.141,5.259V4.5h-2.3V3.483H7.34V5.476A3.651,3.651,0,0,1,5.916,6.839a4.173,4.173,0,0,1-2.058.511A3.769,3.769,0,0,1,0,3.676,3.769,3.769,0,0,1,3.858,0,3.634,3.634,0,0,1,6.942,1.5Z" transform="translate(69.733 46.307)" fill="#56585a"/>
  <path id="Shape-6" data-name="Shape" d="M4.519,7.344,2.465,4.5H1.158V7.344H0V0H2.634A2.516,2.516,0,0,1,4.4.635,2.1,2.1,0,0,1,5.08,2.26a2.241,2.241,0,0,1-.366,1.265,2.136,2.136,0,0,1-1.015.8L5.873,7.351Z" transform="translate(83.679 46.306)" fill="#56585a"/>
  <path id="Shape-7" data-name="Shape" d="M1.182,6.291A3.548,3.548,0,0,1,0,3.694,3.539,3.539,0,0,1,1.152,1.086l.03-.028a4.379,4.379,0,0,1,5.71,0,3.546,3.546,0,0,1,1.181,2.6A3.537,3.537,0,0,1,6.922,6.264l-.029.028A4.309,4.309,0,0,1,4.037,7.35,4.307,4.307,0,0,1,1.182,6.291Z" transform="translate(93.956 46.307)" fill="#56585a"/>
  <path id="Path-7" data-name="Path" d="M5.857,4.308a3.015,3.015,0,0,1-.814,2.227,3.141,3.141,0,0,1-4.222,0A3.006,3.006,0,0,1,0,4.308V0H1.165V4.383a1.885,1.885,0,0,0,.5,1.414,1.761,1.761,0,0,0,1.29.492A1.724,1.724,0,0,0,4.233,5.8a1.91,1.91,0,0,0,.5-1.414V0H5.872Z" transform="translate(107.902 46.307)" fill="#56585a"/>
  <path id="Shape-8" data-name="Shape" d="M0,7.351V0H2.67A2.576,2.576,0,0,1,4.451.625a2.265,2.265,0,0,1,.053,3.2c-.018.019-.034.038-.053.054a2.546,2.546,0,0,1-1.8.631H1.16V7.351Z" transform="translate(120.381 46.306)" fill="#56585a"/>
</svg>
