<svg id="Hyundai" xmlns="http://www.w3.org/2000/svg" width="157.138" height="22.038" viewBox="0 0 157.138 22.038">
  <path id="Shape" d="M0,10.991C0,4.934,9.456,0,21.113,0S42.171,4.934,42.226,11.047c0,6.056-9.457,10.991-21.114,10.991S0,17.1,0,10.991ZM146.252,18.9V14.019H139.6V18.9h-3.684V6.393a3.22,3.22,0,0,1,.825-2.355,2.916,2.916,0,0,1,2.309-.9h10.886V18.9Zm-27.546,0V3.141h10.831a3.263,3.263,0,0,1,2.309.841,3.035,3.035,0,0,1,.88,2.355v9.308a3.248,3.248,0,0,1-.88,2.356,2.916,2.916,0,0,1-2.309.9Zm-7.093,0V7.346a.759.759,0,0,0-.77-.786H104.96V18.9h-3.684V3.141h10.832a3.311,3.311,0,0,1,2.365.841,3.223,3.223,0,0,1,.824,2.355V18.9Zm-27.766,0V3.141h3.684V15.476h5.883a.759.759,0,0,0,.77-.785V3.141h3.629v12.5A3.222,3.222,0,0,1,96.988,18a2.916,2.916,0,0,1-2.309.9Zm69.662-.056V3.141h3.629v15.7Zm-81.153,0V13.4L66.033,3.141h4.344l3.849,6.224,3.849-6.224h4.288L76.04,13.4v5.44Zm-11.436,0v-6.28H54.267v6.28H50.583V3.141h3.684v6H60.92v-6H64.6v15.7Z" fill="#1c305d"/>
</svg>
